<?xml version="1.0" encoding="utf-8"?>
<!-- Generator: Adobe Illustrator 21.0.0, SVG Export Plug-In . SVG Version: 6.00 Build 0)  -->
<svg version="1.1" id="Capa_1" xmlns="http://www.w3.org/2000/svg" xmlns:xlink="http://www.w3.org/1999/xlink" x="0px" y="0px"
	 viewBox="0 0 291 94" style="enable-background:new 0 0 291 94;" xml:space="preserve">
<style type="text/css">
	.st0{fill:#373737;}
</style>
<g>
	<path class="st0" d="M52.8,18.1H62v27.3h-9.2V18.1z"/>
	<path class="st0" d="M84.5,31h8v11.5c-3.3,2.3-7.9,3.5-11.9,3.5c-8.8,0-15.3-5.9-15.3-14.3s6.4-14.3,15.4-14.3
		c5.4,0,9.7,1.9,12.5,5.3l-5.9,5.2c-1.7-2-3.7-3-6.1-3c-4.1,0-6.6,2.6-6.6,6.8c0,4.1,2.6,6.8,6.5,6.8c1.1,0,2.2-0.2,3.4-0.7V31z"/>
	<path class="st0" d="M123.4,18.1v27.3h-7.6L105.4,33v12.4h-9V18.1h7.6l10.4,12.4V18.1H123.4z"/>
	<path class="st0" d="M146.4,40.6H136l-1.8,4.8h-9.4l11.9-27.3h9l11.9,27.3h-9.5L146.4,40.6z M143.9,34l-2.7-6.9l-2.7,6.9H143.9z"/>
	<path class="st0" d="M157.8,31.7c0-8.4,6.4-14.3,15.2-14.3c5.3,0,9.6,2,12.2,5.5l-5.8,5.2c-1.6-2-3.5-3.2-6-3.2
		c-3.8,0-6.4,2.7-6.4,6.8c0,4.2,2.6,6.8,6.4,6.8c2.5,0,4.4-1.2,6-3.2l5.8,5.2C182.5,44,178.3,46,173,46
		C164.2,46,157.8,40.1,157.8,31.7z"/>
	<path class="st0" d="M187.9,18.1h9.2v27.3h-9.2V18.1z"/>
	<path class="st0" d="M200.4,31.7c0-8.3,6.5-14.3,15.4-14.3s15.4,6,15.4,14.3c0,8.3-6.5,14.3-15.4,14.3S200.4,40,200.4,31.7z
		 M221.9,31.7c0-4.3-2.7-6.8-6.1-6.8s-6.1,2.6-6.1,6.8c0,4.3,2.7,6.8,6.1,6.8S221.9,36,221.9,31.7z"/>
	<path class="st0" d="M51.1,74.2l3-6.7c2.6,1.5,6,2.5,9,2.5c2.6,0,3.5-0.5,3.5-1.5c0-3.4-15.1-0.7-15.1-10.8c0-5.1,4.3-9.2,12.7-9.2
		c3.7,0,7.4,0.8,10.3,2.4l-2.8,6.7c-2.7-1.4-5.2-2-7.6-2c-2.7,0-3.5,0.8-3.5,1.7c0,3.3,15.1,0.5,15.1,10.6c0,5-4.3,9.2-12.7,9.2
		C58.4,77,53.8,75.9,51.1,74.2z"/>
	<path class="st0" d="M97,71.6H86.7l-1.8,4.8h-9.4l11.9-27.3h9l11.9,27.3h-9.5L97,71.6z M94.5,65l-2.7-6.9L89.2,65H94.5z"/>
	<path class="st0" d="M136.8,49.1v27.3h-7.6L118.8,64v12.4h-9V49.1h7.6l10.4,12.4V49.1H136.8z"/>
	<path class="st0" d="M140.1,62.7c0-8.4,6.4-14.3,15.2-14.3c5.3,0,9.6,2,12.2,5.5l-5.8,5.2c-1.6-2-3.5-3.2-6-3.2
		c-3.8,0-6.4,2.7-6.4,6.8c0,4.2,2.6,6.8,6.4,6.8c2.5,0,4.4-1.2,6-3.2l5.8,5.2c-2.7,3.5-6.9,5.5-12.2,5.5
		C146.6,77,140.1,71.1,140.1,62.7z"/>
	<path class="st0" d="M197.1,49.1v27.3h-9.2V66.3h-8.5v10.1h-9.2V49.1h9.2v9.7h8.5v-9.7H197.1z"/>
	<path class="st0" d="M224.3,69.4v6.9h-22.7V49.1h22.2V56h-13.1v3.2h11.5v6.6h-11.5v3.6H224.3z"/>
	<path class="st0" d="M251.9,69.2v7.1h-25.1v-5.7l12.5-14.5h-12.1v-7.1h24.1v5.7l-12.5,14.5H251.9z"/>
</g>
</svg>
